/* XPM */
static char *_70b91c895c14f8da281c9a96a5ec91cRjsXcfUst76ShCMg[] = {
/* columns rows colors chars-per-pixel */
"32 32 234 2 ",
"   c None",
".  c #000C24",
"X  c #000C25",
"o  c #000C27",
"O  c #000C28",
"+  c #000C29",
"@  c #000C2A",
"#  c #000C2B",
"$  c #000C2C",
"%  c #000C2D",
"&  c #000C2E",
"*  c #000C30",
"=  c #000C32",
"-  c #000C33",
";  c #000C35",
":  c #000C36",
">  c #010C37",
",  c #010C38",
"<  c #010C39",
"1  c #010C3A",
"2  c #010C3C",
"3  c #010D3C",
"4  c #010C3D",
"5  c #010C3E",
"6  c #010C3F",
"7  c #00113D",
"8  c #00113E",
"9  c #00113F",
"0  c #00123E",
"q  c #00123F",
"w  c #010C40",
"e  c #010C41",
"r  c #001140",
"t  c #001142",
"y  c #001145",
"u  c #001149",
"i  c #00114C",
"p  c #00114D",
"a  c #001151",
"s  c #011151",
"d  c #011052",
"f  c #001450",
"g  c #001452",
"h  c #001453",
"j  c #011156",
"k  c #011157",
"l  c #011158",
"z  c #02115D",
"x  c #02115E",
"c  c #031163",
"v  c #031264",
"b  c #051069",
"n  c #04116A",
"m  c #05116A",
"M  c #061170",
"N  c #061171",
"B  c #061172",
"V  c #071175",
"C  c #071176",
"Z  c #071177",
"A  c #0B117B",
"S  c #0A117C",
"D  c #0B117C",
"F  c #DE3A1C",
"G  c #F3103D",
"H  c #F3AB10",
"J  c #0C1180",
"K  c #0D1181",
"L  c #0D1185",
"P  c #0E1185",
"I  c #0E1285",
"U  c #101188",
"Y  c #101189",
"T  c #10118A",
"R  c #10118B",
"E  c #11118B",
"W  c #10118D",
"Q  c #11118D",
"!  c #003791",
"~  c #003792",
"^  c #003793",
"/  c #003794",
"(  c #003795",
")  c #003796",
"_  c #003797",
"`  c #003891",
"'  c #003892",
"]  c #003893",
"[  c #003894",
"{  c #003896",
"}  c #003897",
"|  c #003799",
" . c #00379A",
".. c #01379B",
"X. c #01379D",
"o. c #003898",
"O. c #003899",
"+. c #01389E",
"@. c #01389F",
"#. c #0137A0",
"$. c #0336A3",
"%. c #0337A3",
"&. c #0336A5",
"*. c #0138A3",
"=. c #0437A9",
"-. c #0537A9",
";. c #0537AA",
":. c #0737AF",
">. c #0837AE",
",. c #0837AF",
"<. c #0B37B3",
"1. c #0C36B3",
"2. c #0C36B5",
"3. c #0E36B9",
"4. c #1036B8",
"5. c #1037B9",
"6. c #1037BB",
"7. c #1336BE",
"8. c #1337BF",
"9. c #1536BF",
"0. c #1937C4",
"q. c #1836C5",
"w. c #1937C5",
"e. c #1937C6",
"r. c #1C37CA",
"t. c #1E37CB",
"y. c #2137D1",
"u. c #2537D5",
"i. c #2537D6",
"p. c #2737D7",
"a. c #2038D0",
"s. c #2A37D9",
"d. c #2A37DA",
"f. c #2B37DB",
"g. c #2E36DE",
"h. c #2E37DE",
"j. c #3136E0",
"k. c #3037E0",
"l. c #3137E0",
"z. c #3237E1",
"x. c #3237E2",
"c. c #3337E2",
"v. c #3437E2",
"b. c #0C68C6",
"n. c #0C68C7",
"m. c #0C68C8",
"M. c #0D68C8",
"N. c #4FC5F1",
"B. c #4EC6F0",
"V. c #4FC6F0",
"C. c #4FC7F0",
"Z. c #4EC6F1",
"A. c #4FC6F1",
"S. c #4FC7F1",
"D. c #50C5F1",
"F. c #50C6F1",
"G. c #51C6F1",
"H. c #53C6F1",
"J. c #57C6F2",
"K. c #57C6F3",
"L. c #58C5F2",
"P. c #58C7F2",
"I. c #5BC6F3",
"U. c #5BC7F3",
"Y. c #5CC7F3",
"T. c #5CC5F4",
"R. c #5CC5F5",
"E. c #5DC6F5",
"W. c #5CC7F5",
"Q. c #5FC7F4",
"!. c #5EC7F6",
"~. c #5FC7F6",
"^. c #51C9F1",
"/. c #53C8F1",
"(. c #52C9F1",
"). c #53C9F1",
"_. c #53CAF0",
"`. c #52CAF1",
"'. c #53CAF1",
"]. c #52C9F2",
"[. c #53C9F2",
"{. c #55C8F1",
"}. c #54CAF0",
"|. c #54CAF1",
" X c #56C8F2",
".X c #54CAF2",
"XX c #59C8F3",
"oX c #5BC8F3",
"OX c #58C8F4",
"+X c #5DC8F4",
"@X c #61C5F6",
"#X c #60C6F6",
"$X c #61C7F6",
"%X c #63C7F7",
"&X c #65C6F7",
"*X c #60C8F6",
"=X c #61C8F6",
"-X c #63C8F7",
";X c #65C7F8",
":X c #66C6F8",
">X c #67C7F8",
",X c #67C7F9",
"<X c #6AC6FA",
"1X c #6BC7FA",
"2X c #6FC7FA",
"3X c #6EC7FB",
"4X c #6FC7FB",
"5X c #66C8F9",
"6X c #69C8F8",
"7X c #68C8F9",
"8X c #6DC8F9",
"9X c #6CC8FA",
"0X c #75C7FB",
"qX c #74C6FC",
"wX c #78C7FB",
"eX c #79C7FC",
"rX c #7AC7FC",
"tX c #7AC7FD",
"yX c #7DC6FD",
"uX c #7EC7FD",
"iX c #76C8FB",
"pX c #7EC8FD",
"aX c #67D6F4",
"sX c #68D6F5",
"dX c #6AD7F6",
"fX c #6BD8F6",
"gX c #6DD8F6",
"hX c #6EDBF6",
"jX c #70DDF5",
"kX c #E8C780",
"lX c #81C6FD",
"zX c #81C7FD",
"xX c #83C6FE",
"cX c #83C8FD",
/* pixels */
"  dXU.E.$X;X7X2XeXlXlXrX8X<X&X$XR.K.H.H.H.B.B.V.V.H.D.D.D.H.aX  ",
"dXm.*.=.<.8.t.u.g.x.x.g.p.t.9.<.=.#.| / ^ ^ ' ^ ^ ^ ^ ^ ^ / n.fX",
"_.| g s z m C J Y Q Q Y J Z n c d u y 9 9 9 9 9 9 9 9 9 r p @.J.",
"_.^ 9 @ @ * ; < 4 e e 4 < ; G G X X X X X X . X X X . X @ p &.J.",
"}.^ 9 @ X . . . X G X X . G G G G G . . . . . . . . . . @ j :.E.",
"}.! 9 X X . . . G G . . . G G F F G . X . . . G . . . . @ c 3.$X",
"_.^ 9 X . . . . G . . . G G G F F F G X . . . G G . . . = M q.;X",
"_.` r X . . . G G . . . G G G F F F G X . . . . G . X X : A y.<X",
"_.^ 9 X . . . . . . . G G G F F H F G G . . . . . . . X < P d.qX",
"_./ 9 X . . . . . . . G G G F F H F F G . . . . . . . . 6 Y x.yX",
"_.^ 9 X . . . . . . . G G G F F H H F G G . . . . . . . w Q x.lX",
"H.^ 9 O . . G . . . . G G G F F H H F F G . . . . . . X 6 Y x.yX",
" X/ r O X . G G . . . G G F F H H H F F G G X . G G X X 6 P d.iX",
"oXX.y O . . G G G G . G G F F H H H H F F G . G G G X X ; A a.2X",
"+X#.p O . . G F F G G G G F F H H H H F F G G G G G X X * M q.;X",
"*X<.l O . . G G F F F G G F F H H H H F F F G F F G X X & c 8.*X",
"-X6.v & . . . G F F F F F F F H H H F F F F F F F G . . @ j :.+X",
"7Xq.M * . . . G F H H H F F F H H H H F F H H F F G . . X p &.Y.",
"8Xy.A ; . . G G F H H H H F H H H H H F H H H F F G . . G y X.U.",
"wXf.P G G . G G F H H H H H H H H H H H H H H F F G G G G r /  X",
"pXz.Y w G G F F H H H H H H H kXH kXH H H H H F F F F F G 9 [ _.",
"cXv.Q w G F F F F H H H kXH kXkXkXkXH H H H H F F F F F G r [ _.",
"pXk.Q w G F F F F H H H kXkXkXkXkXkXkXH H H H F F F F G X 9 [ _.",
"iXd.P 6 . G F H H H H H kXkXkXkXkXH H kXH H H H F F G G X w / _.",
"8Xy.S < . G G F H H H H kXkXkXkXkXkXkXkXkXH H H F F G . X 9 ' _.",
"5Xq.M * . . G G F H H H kXkXkXkXkXkXkXkXH H H H F F G . X 9 ' _.",
"*X6.c & . . . G F H H H H H H H H H H H H H H H F G X . X 9 ' _.",
"$X>.j @ . . . G G F F F H H H H H H H H H H H F F G . . X 9 [ _.",
"Y.%.p @ X . X X G G G F F F F H H H H H H F F F G G & & @ 9 ^ _.",
"U.@.g 9 9 9 9 9 9 9 9 G G F F F F F F F F F F G G C m l s g O. X",
"gXn.[ ^ ! ! ! ! ^ ^ ^ ^ ^ / ^ ! ! ^ ^ ^ ^ ^ ^ ^ u.t.q.<.=.*.m.jX",
"  fXB.B.B.B.B.B.V.V.V.V.H.V.B.B.B.B.B.B.eXlXlX0X2X;X;X+XoXoXgX  "
};
