/* XPM */
static char *_b5b86eaf03642e2ddb4dc2a704100c2Dy6P6M49S3iZGbL2[] = {
/* columns rows colors chars-per-pixel */
"32 32 249 2 ",
"   c None",
".  c #000C24",
"X  c #000C25",
"o  c #000C27",
"O  c #000C28",
"+  c #000C29",
"@  c #000C2A",
"#  c #000C2B",
"$  c #000C2C",
"%  c #000C2D",
"&  c #000C2E",
"*  c #000C30",
"=  c #000C32",
"-  c #000C33",
";  c #000C34",
":  c #000C35",
">  c #000C36",
",  c #010C37",
"<  c #010C38",
"1  c #010C39",
"2  c #010C3A",
"3  c #010C3C",
"4  c #010D3C",
"5  c #010C3D",
"6  c #010C3E",
"7  c #010C3F",
"8  c #00113D",
"9  c #00113E",
"0  c #00113F",
"q  c #00123E",
"w  c #00123F",
"e  c #010C40",
"r  c #010C41",
"t  c #001140",
"y  c #001141",
"u  c #001142",
"i  c #001145",
"p  c #001147",
"a  c #001149",
"s  c #00114C",
"d  c #00114D",
"f  c #001151",
"g  c #011151",
"h  c #011052",
"j  c #011153",
"k  c #001450",
"l  c #001452",
"z  c #001453",
"x  c #011156",
"c  c #011157",
"v  c #011158",
"b  c #02115D",
"n  c #02115E",
"m  c #031163",
"M  c #031264",
"N  c #051069",
"B  c #04116A",
"V  c #05116A",
"C  c #05116C",
"Z  c #061170",
"A  c #061171",
"S  c #061172",
"D  c #071175",
"F  c #071176",
"G  c #071177",
"H  c #0B117B",
"J  c #0A117C",
"K  c #0B117C",
"L  c #DC6161",
"P  c #0C1180",
"I  c #0C1181",
"U  c #0D1181",
"Y  c #0D1185",
"T  c #0E1185",
"R  c #0E1285",
"E  c #101188",
"W  c #101189",
"Q  c #10118A",
"!  c #10118B",
"~  c #11118B",
"^  c #11108D",
"/  c #10118D",
"(  c #11118D",
")  c #12108D",
"_  c #003791",
"`  c #003792",
"'  c #003793",
"]  c #003794",
"[  c #003795",
"{  c #003796",
"}  c #003797",
"|  c #003891",
" . c #003892",
".. c #003893",
"X. c #003894",
"o. c #003896",
"O. c #003897",
"+. c #003799",
"@. c #00379A",
"#. c #01379B",
"$. c #01379D",
"%. c #01379F",
"&. c #003898",
"*. c #003899",
"=. c #01389E",
"-. c #01389F",
";. c #0137A0",
":. c #0336A3",
">. c #0337A3",
",. c #0336A5",
"<. c #0138A3",
"1. c #0437A9",
"2. c #0537A9",
"3. c #0537AA",
"4. c #0737AF",
"5. c #0837AE",
"6. c #0837AF",
"7. c #0B37B3",
"8. c #0C36B3",
"9. c #0C36B5",
"0. c #0E36B9",
"q. c #1036B8",
"w. c #1037B9",
"e. c #1037BB",
"r. c #1336BE",
"t. c #1337BF",
"y. c #1536BF",
"u. c #1436C0",
"i. c #1937C4",
"p. c #1836C5",
"a. c #1937C5",
"s. c #1937C6",
"d. c #1C37CA",
"f. c #1C37CB",
"g. c #1E37CB",
"h. c #2137D1",
"j. c #2537D5",
"k. c #2537D6",
"l. c #2737D6",
"z. c #2737D7",
"x. c #2038D0",
"c. c #2A37D9",
"v. c #2A37DA",
"b. c #2B37DB",
"n. c #2D37DD",
"m. c #2E36DE",
"M. c #2E37DE",
"N. c #3136E0",
"B. c #3037E0",
"V. c #3137E0",
"C. c #3237E1",
"Z. c #3237E2",
"A. c #3337E2",
"S. c #3437E2",
"D. c #0C68C6",
"F. c #0C68C7",
"G. c #0C68C8",
"H. c #0D68C8",
"J. c #4FC5F1",
"K. c #4EC6F0",
"L. c #4FC6F0",
"P. c #4FC7F0",
"I. c #4EC6F1",
"U. c #4FC6F1",
"Y. c #4FC7F1",
"T. c #50C5F1",
"R. c #50C6F1",
"E. c #51C6F1",
"W. c #53C6F1",
"Q. c #50C6F2",
"!. c #57C6F2",
"~. c #57C6F3",
"^. c #58C5F2",
"/. c #58C7F2",
"(. c #5BC6F3",
"). c #5BC7F3",
"_. c #5CC7F3",
"`. c #5CC5F4",
"'. c #5CC5F5",
"]. c #5CC6F5",
"[. c #5DC6F5",
"{. c #5CC7F5",
"}. c #5FC7F4",
"|. c #5EC6F6",
" X c #5EC7F6",
".X c #5FC7F6",
"XX c #51C9F1",
"oX c #53C8F1",
"OX c #52C9F1",
"+X c #53C9F1",
"@X c #53CAF0",
"#X c #52CAF1",
"$X c #53CAF1",
"%X c #52C9F2",
"&X c #53C9F2",
"*X c #55C8F1",
"=X c #54CAF0",
"-X c #54CAF1",
";X c #56C8F2",
":X c #54CAF2",
">X c #59C8F3",
",X c #5BC8F3",
"<X c #58C8F4",
"1X c #5DC8F4",
"2X c #61C5F6",
"3X c #60C6F6",
"4X c #61C7F6",
"5X c #63C7F7",
"6X c #65C6F7",
"7X c #60C8F6",
"8X c #61C8F6",
"9X c #63C8F7",
"0X c #64C6F8",
"qX c #65C7F8",
"wX c #66C6F8",
"eX c #67C7F8",
"rX c #67C7F9",
"tX c #66C7FA",
"yX c #6AC6FA",
"uX c #6BC7FA",
"iX c #6FC7FA",
"pX c #6EC7FB",
"aX c #6FC7FB",
"sX c #66C8F9",
"dX c #69C8F8",
"fX c #68C8F9",
"gX c #6DC8F9",
"hX c #6CC8FA",
"jX c #75C7FB",
"kX c #74C6FC",
"lX c #78C7FB",
"zX c #79C7FC",
"xX c #7AC7FC",
"cX c #7AC7FD",
"vX c #7DC6FD",
"bX c #7EC7FD",
"nX c #76C8FB",
"mX c #7EC8FD",
"MX c #67D6F4",
"NX c #68D6F5",
"BX c #6AD7F6",
"VX c #6BD8F6",
"CX c #6DD8F6",
"ZX c #6EDBF6",
"AX c #70DDF5",
"SX c #81C6FD",
"DX c #81C7FD",
"FX c #83C6FE",
"GX c #83C8FD",
/* pixels */
"  BX).[.4XqXfXiXzXSXSXcXgXyX6X4X[.~.W.W.W.K.K.L.L.W.T.T.T.W.MX  ",
"BXG.<.1.7.t.g.j.M.C.C.M.z.g.u.9.1.;.+.] ' '  .' ' ' ' ' ' ] F.VX",
"@X+.l g b V F P W ^ ^ W P G C b h a i 0 0 0 0 0 0 0 0 0 t d -.!.",
"@X' 0 @ @ * : 1 6 r r 5 1 : * % X X X X X X . X X X . X @ d ,.!.",
"=X' 0 @ X . . . X X X X . . . . X X . . . . . . . . . . @ x 4.[.",
"=X_ 0 X X . . . . . . . . . . . . X . . . . . . . . . . @ m 0.4X",
"@X' 0 X . . . . . . . . . . L L L L L L L L L L . . . . = Z p.qX",
"@X| t X . . . . . . . . . L L . . . . . . . . . . . X X > H h.yX",
"@X' 0 X . . . . . . . . L . . . . . . . . . . . . . . X 1 Y c.kX",
"@X] 0 X . . . . . . . L . . . . . . . . . . . . . . . . 6 ^ B.vX",
"@X' 0 X . . . . . . L L . . . . . . . . . . . . . . . . r ^ B.FX",
"W.' 0 O . . . . . . L . . . . . . . . . . . . . . . . X 6 Q C.SX",
";X] t O X . . . . L L . . . . . . . . . . . . . . . X X 6 Y v.nX",
",X$.i O . . . . . L . . . . . . . . . . . . . . . . X X : K x.fX",
"1X;.d O . . . . . L . . . . . . L L L L L L L L L . . X : Z s.yX",
"7X7.v O . . . . . L . . . . . . L . . . . . . . L . X X % M e.7X",
"9Xw.M % . . . . L . . . . . . . . . . . . . . . L . . . @ x 6.7X",
"fXs.Z : . . . . L . . . . . . . . . . . . . . . . L . . X d ,._.",
"gXh.H : . . . . L . . . . . . . . . . . . . . . . L . . X i $.).",
"lXb.Y 1 . . . . L . . . . . . . . . . . . . . . L . . . X t ] oX",
"mXB.W r X . . . L . . . . . . . . . . . . . . . L . . . X 0 X.@X",
"GXS.^ r . . . . . L L . . . . . . . . . . . . L L . . . X 0 X.@X",
"mXV.^ r . . . . . . L L L . . . . . . . . L L L . . . . X 0 X.@X",
"nXv.Y 6 . . . . . . . . L L L L L L L L L L . . . . . . X r ] @X",
"gXx.K 1 X . . . . . . . . . . . . . . . . . . . . . . . X 0  .@X",
"sXs.Z * X X . . . . . . . . . . . . . . . . . . . . . . X 0  .@X",
"6Xw.m % . . . . . . . . . . . . . . . . . . . . . . . . X 0  .@X",
"1X5.x @ . . . . . . . . . . . . . . . . X X X X . . . . X 0 X.@X",
"_.>.d @ X . X X X X X . X X X @ @ * : 1 r r r 6 1 * * % @ 0 ' @X",
").-.l 0 0 0 0 0 0 0 0 0 0 t i x b C G P W ^ ^ E P F V b g l *.;X",
"CXF.X.' _ _ _ _ ' ' ' X.] +.;.1.8.u.g.j.B.B.B.M.j.g.u.8.1.<.G.AX",
"  VXK.K.K.K.K.K.L.L.L.L.L.W.~.].[.0XsXkXzXSXSXzXpXqXqX1X,X,XCX  "
};
