/* XPM */
static char *_5d79ea260c64c288c62a3c490c29650XJ56xixSmkPzTUdf[] = {
/* columns rows colors chars-per-pixel */
"32 32 251 2 ",
"   c None",
".  c #000C24",
"X  c #000C25",
"o  c #000C27",
"O  c #000C28",
"+  c #000C29",
"@  c #000C2A",
"#  c #000C2B",
"$  c #000C2C",
"%  c #000C2D",
"&  c #000C2E",
"*  c #000C30",
"=  c #000C32",
"-  c #000C33",
";  c #000C34",
":  c #000C35",
">  c #000C36",
",  c #010C37",
"<  c #010C38",
"1  c #010C39",
"2  c #010C3A",
"3  c #010C3C",
"4  c #010D3C",
"5  c #010C3D",
"6  c #010C3E",
"7  c #010C3F",
"8  c #00113D",
"9  c #00113E",
"0  c #00113F",
"q  c #00123E",
"w  c #00123F",
"e  c #010C40",
"r  c #010C41",
"t  c #001140",
"y  c #001141",
"u  c #001142",
"i  c #001145",
"p  c #001147",
"a  c #001149",
"s  c #00114C",
"d  c #00114D",
"f  c #001151",
"g  c #011151",
"h  c #011052",
"j  c #011153",
"k  c #001450",
"l  c #001452",
"z  c #001453",
"x  c #011156",
"c  c #011157",
"v  c #011158",
"b  c #02115D",
"n  c #02115E",
"m  c #031163",
"M  c #031264",
"N  c #051069",
"B  c #04116A",
"V  c #05116A",
"C  c #05116C",
"Z  c #061170",
"A  c #061171",
"S  c #061172",
"D  c #071175",
"F  c #071176",
"G  c #071177",
"H  c #0B117B",
"J  c #0A117C",
"K  c #0B117C",
"L  c #F20000",
"P  c #E4F200",
"I  c #0C1180",
"U  c #0C1181",
"Y  c #0D1181",
"T  c #0D1185",
"R  c #0E1185",
"E  c #0E1285",
"W  c #101188",
"Q  c #101189",
"!  c #10118A",
"~  c #10118B",
"^  c #11118B",
"/  c #11108D",
"(  c #10118D",
")  c #11118D",
"_  c #12108D",
"`  c #003791",
"'  c #003792",
"]  c #003793",
"[  c #003794",
"{  c #003795",
"}  c #003796",
"|  c #003797",
" . c #003891",
".. c #003892",
"X. c #003893",
"o. c #003894",
"O. c #003896",
"+. c #003897",
"@. c #003799",
"#. c #00379A",
"$. c #01379B",
"%. c #01379D",
"&. c #01379F",
"*. c #003898",
"=. c #003899",
"-. c #01389E",
";. c #01389F",
":. c #0137A0",
">. c #0336A3",
",. c #0337A3",
"<. c #0336A5",
"1. c #0138A3",
"2. c #0437A9",
"3. c #0537A9",
"4. c #0537AA",
"5. c #0737AF",
"6. c #0837AE",
"7. c #0837AF",
"8. c #0B37B3",
"9. c #0C36B3",
"0. c #0C36B5",
"q. c #0E36B9",
"w. c #1036B8",
"e. c #1037B9",
"r. c #1037BB",
"t. c #1336BE",
"y. c #1337BF",
"u. c #1536BF",
"i. c #1436C0",
"p. c #1937C4",
"a. c #1836C5",
"s. c #1937C5",
"d. c #1937C6",
"f. c #1C37CA",
"g. c #1C37CB",
"h. c #1E37CB",
"j. c #2137D1",
"k. c #2537D5",
"l. c #2537D6",
"z. c #2737D6",
"x. c #2737D7",
"c. c #2038D0",
"v. c #2A37D9",
"b. c #2A37DA",
"n. c #2B37DB",
"m. c #2D37DD",
"M. c #2E36DE",
"N. c #2E37DE",
"B. c #0E00F2",
"V. c #3136E0",
"C. c #3037E0",
"Z. c #3137E0",
"A. c #3237E1",
"S. c #3237E2",
"D. c #3337E2",
"F. c #3437E2",
"G. c #0C68C6",
"H. c #0C68C7",
"J. c #0C68C8",
"K. c #0D68C8",
"L. c #4FC5F1",
"P. c #4EC6F0",
"I. c #4FC6F0",
"U. c #4FC7F0",
"Y. c #4EC6F1",
"T. c #4FC6F1",
"R. c #4FC7F1",
"E. c #50C5F1",
"W. c #50C6F1",
"Q. c #51C6F1",
"!. c #53C6F1",
"~. c #50C6F2",
"^. c #57C6F2",
"/. c #57C6F3",
"(. c #58C5F2",
"). c #58C7F2",
"_. c #5BC6F3",
"`. c #5BC7F3",
"'. c #5CC7F3",
"]. c #5CC5F4",
"[. c #5CC5F5",
"{. c #5CC6F5",
"}. c #5DC6F5",
"|. c #5CC7F5",
" X c #5FC7F4",
".X c #5EC6F6",
"XX c #5EC7F6",
"oX c #5FC7F6",
"OX c #51C9F1",
"+X c #53C8F1",
"@X c #52C9F1",
"#X c #53C9F1",
"$X c #53CAF0",
"%X c #52CAF1",
"&X c #53CAF1",
"*X c #52C9F2",
"=X c #53C9F2",
"-X c #55C8F1",
";X c #54CAF0",
":X c #54CAF1",
">X c #56C8F2",
",X c #54CAF2",
"<X c #59C8F3",
"1X c #5BC8F3",
"2X c #58C8F4",
"3X c #5DC8F4",
"4X c #61C5F6",
"5X c #60C6F6",
"6X c #61C7F6",
"7X c #63C7F7",
"8X c #65C6F7",
"9X c #60C8F6",
"0X c #61C8F6",
"qX c #63C8F7",
"wX c #64C6F8",
"eX c #65C7F8",
"rX c #66C6F8",
"tX c #67C7F8",
"yX c #67C7F9",
"uX c #66C7FA",
"iX c #6AC6FA",
"pX c #6BC7FA",
"aX c #6FC7FA",
"sX c #6EC7FB",
"dX c #6FC7FB",
"fX c #66C8F9",
"gX c #69C8F8",
"hX c #68C8F9",
"jX c #6DC8F9",
"kX c #6CC8FA",
"lX c #75C7FB",
"zX c #74C6FC",
"xX c #78C7FB",
"cX c #79C7FC",
"vX c #7AC7FC",
"bX c #7AC7FD",
"nX c #7DC6FD",
"mX c #7EC7FD",
"MX c #76C8FB",
"NX c #7EC8FD",
"BX c #67D6F4",
"VX c #68D6F5",
"CX c #6AD7F6",
"ZX c #6BD8F6",
"AX c #6DD8F6",
"SX c #6EDBF6",
"DX c #70DDF5",
"FX c #81C6FD",
"GX c #81C7FD",
"HX c #83C6FE",
"JX c #83C8FD",
/* pixels */
"  CX`.}.6XeXhXaXcXFXFXvXjXiXeX6X}./.!.!.!.P.P.I.I.!.E.E.E.!.BX  ",
"CXJ.1.2.8.y.h.k.M.S.S.M.x.h.i.0.2.:.@.[ ] ] ] ] ] ] ] ] ] [ G.ZX",
"$X@.l g b V F I Q ) ) Q I G V b h a i 0 0 0 0 0 0 0 0 0 t d ;.^.",
"$X] 0 @ @ * : 1 5 r r 5 1 : * % X X X X X X . X X X . . @ d <.^.",
";X] 0 @ X . . . X X X X . . . . X X . . . . . . . . . . @ x 5.}.",
";X` 0 X X . . . . . . . . . . . X X . . . . . . . . . . @ M q.6X",
"$X] 0 X . . . . . . . . . . . . . . . . . . . . . . . . = Z a.8X",
"$X .t X . . . . . . . . . . . . . . . . . . . . . . X X > H j.iX",
"$X] 0 X . . . . . . . . . . . X . X . . . . . . . . . X 1 T v.zX",
"$X[ 0 X . . . . . . . . . X P P P P P X . . . . . . . . 5 ) S.nX",
"$X] 0 X . . . . . . . . X P P P P P P P . . . . . . . . 5 ) S.FX",
"!.] 0 O . . . . . . . . P P P P P P P P P . . . . . . X r Q S.nX",
">X[ t O X . . . . . X P P P P P P P P P P P X . . . X X 5 T n.MX",
"1X%.i O . . . . . . P P P P B.P P P B.P P P P X . . X X : K c.aX",
"3X:.d O . . . . . . P P P P P P P P P P P P P . . . . X : Z d.eX",
"9X8.v O . . . . . . P P P P P P P P P P P P P . . . X X % M r.9X",
"8Xr.M % . . . . . . P P L P P P P P P P L P P . . . . . @ x 8.'.",
"hXd.Z * . . . . . X P P L L P P P P P L L P P X . . . . X d <.'.",
"jXc.K 1 . . . . . . . P P L L L L L L L P P . . . . . . X i %.`.",
"MXn.T 1 . . . . . . . X P P P L L L P P P . . . . . . . X t [ +X",
"NXS.Q r X . . . . . . . . P P P P P P P X . . . . . . . X 0 o.$X",
"JXF.) r . . . . . . . . . . P P P P P . . . . . . . . . X 0 [ $X",
"nXS.Q r . . . . . . . . . . . . X . . . . . . . . . . . X 0 o.$X",
"MXv.T 5 X . . . . . . . . . . . . . . . . . . . . . . . X t [ $X",
"jXc.J < X . . . . . . . . . . . . . . . . . . . . . . . X 0 ] $X",
"fXd.Z = X . . . . . . . . . . . . . . . . . . . . . . . X 0 ] $X",
"8Xr.M % . . . . . . . . . . . . . . . . . . X . . . . . X 0 ] $X",
"3X7.x O . . . . . . . . . . . . . . . . X X X X . . . . X 0 ] $X",
"'.1.d O X . X X X X X . X X X @ O = > < 5 r r 6 < > % % X t [ $X",
"<X;.g 0 0 0 0 0 0 0 0 0 0 t i x b C G I Q ) ) Q K F V b g z =.>X",
"AXG.[ [ ` ` ` ` ] ] ] o.[ @.:.2.9.i.g.k.N.S.S.M.l.g.i.9.2.1.J.DX",
"  ZXP.P.P.P.P.P.I.I.I.I.I.!./.{..XwXeXzXvXFXFXcXdXeXqXoX1X1XAX  "
};
