/* XPM */
static char *New_Piskel__8_1689601674[] = {
/* columns rows colors chars-per-pixel */
"32 32 92 1 ",
"  c #000C24",
". c #000C27",
"X c #000C33",
"o c #000C34",
"O c #000C35",
"+ c #010C38",
"@ c #010C39",
"# c #010C3C",
"$ c #010C3F",
"% c #00113F",
"& c #010C40",
"* c #001141",
"= c #001145",
"- c #00114C",
"; c #011151",
": c #011156",
"> c #011157",
", c #02115D",
"< c #031163",
"1 c #05116A",
"2 c #061170",
"3 c #071176",
"4 c #071177",
"5 c #0B117B",
"6 c #0B117C",
"7 c #00FF2F",
"8 c #0C1180",
"9 c #0D1185",
"0 c #10118A",
"q c #11118D",
"w c #003791",
"e c #003792",
"r c #003794",
"t c #003891",
"y c #003894",
"u c #01379B",
"i c #01379D",
"p c #0337A3",
"a c #0336A5",
"s c #0437A9",
"d c #0737AF",
"f c #0837AE",
"g c #0B37B3",
"h c #0C36B3",
"j c #0E36B9",
"k c #1036B8",
"l c #1337BF",
"z c #1937C4",
"x c #1836C5",
"c c #1E37CB",
"v c #2137D1",
"b c #2537D5",
"n c #2737D7",
"m c #2038D0",
"M c #2A37D9",
"N c #2B37DB",
"B c #2E36DE",
"V c #2E37DE",
"C c #3237E1",
"Z c #3237E2",
"A c #3437E2",
"S c #4FC5F1",
"D c #4EC6F0",
"F c #4FC7F0",
"G c #53C6F1",
"H c #58C5F2",
"J c #58C7F2",
"K c #5BC6F3",
"L c #5DC6F5",
"P c #5FC7F6",
"I c #53C9F1",
"U c #54CAF0",
"Y c #54CAF2",
"T c #61C7F6",
"R c #63C7F7",
"E c #65C7F8",
"W c #66C6F8",
"Q c #6AC6FA",
"! c #6FC7FA",
"~ c #6EC7FB",
"^ c #66C8F9",
"/ c #68C8F9",
"( c #6DC8F9",
") c #75C7FB",
"_ c #78C7FB",
"` c #79C7FC",
"' c #7AC7FC",
"] c #7DC6FD",
"[ c #76C8FB",
"{ c #7EC8FD",
"} c #81C6FD",
"| c #83C8FD",
/* pixels */
"777LTE/!`}}'(Q7777GGGDGDDGGDG777",
"777sglcbBZZBnc7777irrettrreee777",
"777;,1380qq0847777***%%**%%%$777",
"Ye%777O@&&&&@O7777        777-aK",
"Ue%777        7777        777:dL",
"Ue%777        7777        777<jT",
"It*   777     7777     777  o2xE",
"It*   777     7777     777  o6cQ",
"It*   777     7777     777  $9M)",
"Ie%      777  7777  777     $qZ]",
"Ie%      777  7777  777     &0Z}",
"Ie%      777  7777  777     $0Z]",
"Ye*         77777777        $9N)",
"Ki=         77777777        o6v)",
"77777777777777777777777777777777",
"77777777777777777777777777777777",
"77777777777777777777777777777777",
"77777777777777777777777777777777",
"(v6O        77777777         =iK",
"[B9#        77777777         %uI",
"{C0      777  7777  777      *eI",
"|Cq      777  7777  777      *eI",
"]Cq      777  7777  777      %rI",
"[M9   777     7777     777   *eI",
"(m6@  777     7777     777   %tI",
"^z1O  777     7777     777   %tI",
"Ek<777        7777        777%yI",
"Lf:777        7777        777%tI",
"Kp-777        7777O    #oX777%eI",
"777%*%%%%*%%**7777580qq0831,;777",
"777eeeeeeeeeri7777cbBZZBbclgs777",
"777DDDDDDGDDDG7777T!`}}`~E^LL777"
};
