/* XPM */
static char *New_Piskel__7_1689601056[] = {
/* columns rows colors chars-per-pixel */
"32 32 210 2 ",
"   c None",
".  c #000C24",
"X  c #000C25",
"o  c #000C27",
"O  c #000C28",
"+  c #000C29",
"@  c #000C2A",
"#  c #000C2B",
"$  c #000C2C",
"%  c #000C2D",
"&  c #000C30",
"*  c #000C32",
"=  c #000C33",
"-  c #000C34",
";  c #000C35",
":  c #000C36",
">  c #010C37",
",  c #010C38",
"<  c #010C39",
"1  c #010C3A",
"2  c #010C3C",
"3  c #010D3C",
"4  c #010C3D",
"5  c #010C3E",
"6  c #010C3F",
"7  c #00113D",
"8  c #00113E",
"9  c #00113F",
"0  c #00123E",
"q  c #00123F",
"w  c #010C40",
"e  c #010C41",
"r  c #001140",
"t  c #001141",
"y  c #001142",
"u  c #001145",
"i  c #00114C",
"p  c #00114D",
"a  c #001151",
"s  c #011151",
"d  c #001450",
"f  c #001452",
"g  c #001453",
"h  c #011156",
"j  c #011157",
"k  c #02115D",
"l  c #031163",
"z  c #051069",
"x  c #05116A",
"c  c #061170",
"v  c #071175",
"b  c #071176",
"n  c #071177",
"m  c #0B117B",
"M  c #0A117C",
"N  c #0B117C",
"B  c #00FF2F",
"V  c #0C1180",
"C  c #0C1181",
"Z  c #0D1181",
"A  c #0D1185",
"S  c #0E1185",
"D  c #0E1285",
"F  c #101188",
"G  c #101189",
"H  c #10118A",
"J  c #10118B",
"K  c #11118B",
"L  c #11108D",
"P  c #10118D",
"I  c #11118D",
"U  c #12108D",
"Y  c #003791",
"T  c #003792",
"R  c #003793",
"E  c #003794",
"W  c #003795",
"Q  c #003796",
"!  c #003797",
"~  c #003891",
"^  c #003892",
"/  c #003893",
"(  c #003894",
")  c #003896",
"_  c #003897",
"`  c #003799",
"'  c #00379A",
"]  c #01379B",
"[  c #01379D",
"{  c #003898",
"}  c #003899",
"|  c #01389E",
" . c #01389F",
".. c #0337A3",
"X. c #0336A5",
"o. c #0138A3",
"O. c #0437A9",
"+. c #0537A9",
"@. c #0737AF",
"#. c #0837AE",
"$. c #0B37B3",
"%. c #0C36B3",
"&. c #0E36B9",
"*. c #1036B8",
"=. c #1336BE",
"-. c #1337BF",
";. c #1937C4",
":. c #1836C5",
">. c #1C37CA",
",. c #1C37CB",
"<. c #1E37CB",
"1. c #2137D1",
"2. c #2537D5",
"3. c #2537D6",
"4. c #2737D6",
"5. c #2737D7",
"6. c #2038D0",
"7. c #2A37D9",
"8. c #2A37DA",
"9. c #2B37DB",
"0. c #2D37DD",
"q. c #2E36DE",
"w. c #2E37DE",
"e. c #3136E0",
"r. c #3037E0",
"t. c #3137E0",
"y. c #3237E1",
"u. c #3237E2",
"i. c #3337E2",
"p. c #3437E2",
"a. c #0C68C6",
"s. c #0C68C7",
"d. c #0C68C8",
"f. c #0D68C8",
"g. c #4FC5F1",
"h. c #4EC6F0",
"j. c #4FC6F0",
"k. c #4FC7F0",
"l. c #4EC6F1",
"z. c #4FC6F1",
"x. c #4FC7F1",
"c. c #50C5F1",
"v. c #50C6F1",
"b. c #51C6F1",
"n. c #53C6F1",
"m. c #50C6F2",
"M. c #57C6F2",
"N. c #58C5F2",
"B. c #58C7F2",
"V. c #5BC6F3",
"C. c #5BC7F3",
"Z. c #5CC5F4",
"A. c #5DC6F5",
"S. c #5CC7F5",
"D. c #5EC7F6",
"F. c #5FC7F6",
"G. c #51C9F1",
"H. c #53C8F1",
"J. c #52C9F1",
"K. c #53C9F1",
"L. c #53CAF0",
"P. c #52CAF1",
"I. c #53CAF1",
"U. c #52C9F2",
"Y. c #53C9F2",
"T. c #55C8F1",
"R. c #54CAF0",
"E. c #54CAF1",
"W. c #56C8F2",
"Q. c #54CAF2",
"!. c #59C8F3",
"~. c #5BC8F3",
"^. c #58C8F4",
"/. c #61C5F6",
"(. c #61C7F6",
"). c #63C7F7",
"_. c #65C7F8",
"`. c #66C6F8",
"'. c #67C7F9",
"]. c #66C7FA",
"[. c #6AC6FA",
"{. c #6BC7FA",
"}. c #6FC7FA",
"|. c #6EC7FB",
" X c #6FC7FB",
".X c #66C8F9",
"XX c #68C8F9",
"oX c #6DC8F9",
"OX c #6CC8FA",
"+X c #75C7FB",
"@X c #74C6FC",
"#X c #78C7FB",
"$X c #79C7FC",
"%X c #7AC7FC",
"&X c #7AC7FD",
"*X c #7DC6FD",
"=X c #7EC7FD",
"-X c #76C8FB",
";X c #7EC8FD",
":X c #67D6F4",
">X c #68D6F5",
",X c #6AD7F6",
"<X c #6BD8F6",
"1X c #6DD8F6",
"2X c #6EDBF6",
"3X c #70DDF5",
"4X c #81C6FD",
"5X c #81C7FD",
"6X c #83C6FE",
"7X c #83C8FD",
/* pixels */
"  ,XC.A.(._.XX}.$X4X4X%XoX[.B B B B n.n.n.h.k.j.j.n.c.c.c.n.:X  ",
",Xd.o.O.$.-.<.2.q.u.u.w.5.<.B B B B [ E R R ^ R R R R R R E s.<X",
"L.` f s k x b V G I I G V n B B B B r r 9 9 9 9 9 9 9 9 9 s  .M.",
"L.R 9 @ @ & ; < 4 e e 4 < ; B B B B X X X X . X X X . X @ i X.M.",
"R.R 9 @ X . . . X X X X . . B B B B . . . . . . . . . . X h @.A.",
"R.Y 9 X X . . . . . . . . . B B B B . . . . . . . . . . % l &.(.",
"L.R 9 X . . . . . . . . . . B B B B X . . . . . . . . . * c :._.",
"L.~ r X . . . . . . . . . . B B B B X X . . . . . . X X : m 1.[.",
"L.R 9 X . . . . . . . . . . B B B B . . . . . . . . . X < A 7.@X",
"L.E 9 X . . . . . . . . . . B B B B . . . . . . . . . . 4 I u.*X",
"L.R 9 X . . . . . . . . . . B B B B . . . . . . . . . . 4 I u.4X",
"n.R 9 O . . . . . . . . . . B B B B . . . . . . . . . X e G u.*X",
"W.E 9 X X X . . . . . . . . B B B B . . . . . . . X X X 4 A 9.-X",
"~.[ u @ . . . . . . . . . . B B B B . . . . . . . X X X ; N 6.}.",
"B B B B B B B B B B B B B B B B B B B B B B B B B B B B B B B B ",
"B B B B B B B B B B B B B B B B B B B B B B B B B B B B B B B B ",
"B B B B B B B B B B B B B B B B B B B B B B B B B B B B B B B B ",
"B B B B B B B B B B B B B B B B B B B B B B B B B B B B B B B B ",
"oX1.m ; . . . . . . . . . . B B B B . . . . . . . . . . X u [ C.",
"-Xq.A < . . . . . . . . . . B B B B . . . . . . . . . . X r E H.",
";Xu.G e X . . . . . . . . . B B B B . . . . . . . . . . X 9 ( L.",
"7Xu.I e . . . . . . . . . . B B B B . . . . . . . . . . X 9 E L.",
";Xu.G e . . . . . . . . . . B B B B . . . . . . . . . . X 9 ( L.",
"-X8.A 4 . . . . . . . . . . B B B B . . . . . . . . . . X e E L.",
"oX1.N < . . . . . . . . . . B B B B . . . . . . . . . . X 9 ^ L.",
".X;.c ; . . . . . . . . . . B B B B . . . . . . . . . . X 9 ^ L.",
"(.*.l % . . . . . . . . . . B B B B . . . . X . . . . . X 9 ^ L.",
"A.#.j @ . . . . . . . . . . B B B B . . X X X X . . . . X 9 ( L.",
"C...i @ X . X X X X X . X @ B B B B & < 4 e e 4 < & & % @ 9 R L.",
"C. .f 9 9 9 9 9 9 9 9 9 9 r B B B B n V H I I G V b x k s f } W.",
"1Xs.( ^ Y Y ~ Y R R R R E ` B B B B ,.5.w.u.u.q.2.<.-.%.O.o.d.3X",
"  <Xh.h.c.h.h.h.j.j.j.j.j.n.B B B B _.|.%X4X4X$X|._.).F.~.~.1X  "
};
