/* XPM */
static char *New_Piskel_5_png1689603296[] = {
/* columns rows colors chars-per-pixel */
"32 32 2 1 ",
"  c None",
". c #99FB00",
/* pixels */
"                                ",
"                                ",
"                                ",
"                                ",
"           ..........           ",
"           ..........           ",
"        ................        ",
"        ................        ",
"      ....................      ",
"      ....................      ",
"      ....................      ",
"    ........................    ",
"    ........................    ",
"    ........................    ",
"    ........................    ",
"    ........................    ",
"    ........................    ",
"    ........................    ",
"    ........................    ",
"    ........................    ",
"    ........................    ",
"      ....................      ",
"      ....................      ",
"      ....................      ",
"        ................        ",
"        ................        ",
"           ..........           ",
"           ..........           ",
"                                ",
"                                ",
"                                ",
"                                "
};
