/* XPM */
static char *New_Piskel_5_png__1_1689603478[] = {
/* columns rows colors chars-per-pixel */
"32 32 2 1 ",
"  c None",
". c #FB00F9",
/* pixels */
"                                ",
"                                ",
"                                ",
"                                ",
"           ..........           ",
"           ..........           ",
"        ................        ",
"        ................        ",
"      ....................      ",
"      ....................      ",
"      ....................      ",
"    ........................    ",
"    ........................    ",
"    ........................    ",
"    ........................    ",
"    ........................    ",
"    ........................    ",
"    ........................    ",
"    ........................    ",
"    ........................    ",
"    ........................    ",
"      ....................      ",
"      ....................      ",
"      ....................      ",
"        ................        ",
"        ................        ",
"           ..........           ",
"           ..........           ",
"                                ",
"                                ",
"                                ",
"                                "
};
