/* XPM */
static char *New_Piskel_8_png1689605484[] = {
/* columns rows colors chars-per-pixel */
"32 32 48 1 ",
"  c None",
". c black",
"X c #300000",
"o c #6A6A6A",
"O c gray42",
"+ c #6F00B4",
"@ c #9C00FF",
"# c #A20FFF",
"$ c #A81EFF",
"% c #B43CFF",
"& c #BA4BFF",
"* c #C05AFF",
"= c #C669FF",
"- c #CC78FF",
"; c #A59191",
": c #A3A3A4",
"> c #B2B3B3",
", c #B9B9B9",
"< c gray73",
"1 c #E3A7A8",
"2 c #E6ACAD",
"3 c #E2B2B2",
"4 c #E2B5B6",
"5 c #E7B4B4",
"6 c #E7B5B6",
"7 c #E9B5B6",
"8 c #E2B8B8",
"9 c #E2BCBD",
"0 c #EAB8B8",
"q c #CDCDCD",
"w c #DFDBDB",
"e c gainsboro",
"r c #DDDDDD",
"t c #DFDCDC",
"y c #DCDEDE",
"u c gray87",
"i c #DFDFDF",
"p c #E6C3C3",
"a c #E1C4C4",
"s c #E1C5C6",
"d c #E1C6C6",
"f c #EDC2C3",
"g c #E0D2D2",
"h c #E0D7D7",
"j c #DFE1E1",
"k c gray88",
"l c #E1E1E1",
"z c #E9E9E9",
/* pixels */
"                                ",
"                                ",
"                                ",
"             @@@@@@             ",
"             @@@@@@@            ",
"         @@@@@@@@@@@@@@         ",
"         @@@@@@@@@@@@@@         ",
"       @@@@@@@@@@@@@@@@@@       ",
"      @@@@@888@@@@@@@2pp5@@     ",
"      @@@@5iii@@@@@@@wiia@@     ",
"      @@@@aiii20@@@@&uiig5f     ",
"      @@@iiiieei@@#-jjiiiee     ",
"      @@@wii<...@@@=jizO...     ",
"      @@@wii<...@@@=jilO...     ",
"   @@@@@@wii<...@@@=jilO..X@    ",
"   @@@@@@&aiq:++@@@@&wl>;&%@    ",
"   @@@@@@@-jjj&@@@@@@huid@@@    ",
"   @@@@@@@$999@@@@@@@8991@@@    ",
"   @@@@@@@@@@@@@@@@@@@@@@@@@    ",
"   @@@@@@@@@@@@@@@@@@@@@@@@@    ",
"   @@@@@@@@@@@@@@@@@@@@@@@@@    ",
"   @@@@@@@@@@@@@@@@@@@@@@@@@    ",
"   @@@@@@@@@@@@@@@@@@@@@@@@@    ",
"   @@@@@@@@@@@@@@@@@@@@@@@@@    ",
"   @@@@@@@@@@@@@@@@@@@@@@@@@    ",
"   @@@@@@@  @@@@@@@@ @@@@@@@    ",
"     @@@      @@@@     @@@      ",
"      @@      @@@@     @@@      ",
"                                ",
"                                ",
"                                ",
"                                "
};
