/* XPM */
static char *New_Piskel_6_png1689605386[] = {
/* columns rows colors chars-per-pixel */
"32 32 36 1 ",
"  c None",
". c black",
"X c #151515",
"o c #282828",
"O c #484848",
"+ c #505050",
"@ c #5F6060",
"# c #9C00FF",
"$ c #B5B5B6",
"% c #CDCDCD",
"& c gray81",
"* c #D0D0D0",
"= c #D7D7D7",
"- c #D6D8D8",
"; c gray85",
": c #DFDBDB",
"> c #DFDCDC",
", c #DFDDDD",
"< c gray87",
"1 c #DFDFDF",
"2 c #E1C8C8",
"3 c #E1C9CA",
"4 c #E0CCCD",
"5 c #E0CECF",
"6 c #E0CFCF",
"7 c #E0D2D2",
"8 c #E0D3D3",
"9 c #E0D4D4",
"0 c #E0D5D5",
"q c #E0D6D6",
"w c #E0D7D7",
"e c #DFE0E0",
"r c #DFE1E1",
"t c #DFE3E3",
"y c #E1E1E1",
"u c #E1E5E5",
/* pixels */
"                                ",
"                                ",
"                                ",
"             #######            ",
"             #######            ",
"         ...o#######...         ",
"         X..O#######...         ",
"       1y+..@u####t-...$e       ",
"      #11&%%&y####11%%%;q##     ",
"      #:11twee####111111q##     ",
"      #:11t11e####t11111q##     ",
"      #5711119####q711yq2##     ",
"      ###7114#######t11=###     ",
"      ###5::2#######1::%###     ",
"    ########################    ",
"    ########################    ",
"    ########################    ",
"    ########################    ",
"    ########################    ",
"    ########################    ",
"    ########################    ",
"    ########################    ",
"    ########################    ",
"    ########################    ",
"    ########################    ",
"    ##  ######    #####   ##    ",
"    #      ###    ###      #    ",
"    #      ###    ###      #    ",
"                                ",
"                                ",
"                                ",
"                                "
};
