/* XPM */
static char *New_Piskel_7_png1689605436[] = {
/* columns rows colors chars-per-pixel */
"32 32 36 1 ",
"  c None",
". c black",
"X c #1C0000",
"o c #232323",
"O c #292222",
"+ c #8B7A7A",
"@ c #9C00FF",
"# c #A20FFF",
"$ c #B43CFF",
"% c #C05AFF",
"& c #C669FF",
"* c #898989",
"= c #A7A7A7",
"- c #B0B1B1",
"; c #B1B2B2",
": c #B3B4B4",
"> c #CBB3B4",
", c #CBB4B4",
"< c #E2BBBB",
"1 c #D896FF",
"2 c gray76",
"3 c gray79",
"4 c #CACACA",
"5 c gray84",
"6 c #D7D7D7",
"7 c #DFDCDC",
"8 c #DFDEDE",
"9 c #DFDFDF",
"0 c #E1C4C4",
"q c #E1C5C6",
"w c #E1C7C7",
"e c #E2C7C7",
"r c #EED1D2",
"t c #DFE0E0",
"y c #DFE2E2",
"u c gray88",
/* pixels */
"                                ",
"                                ",
"                                ",
"             @@@@@@             ",
"             @@@@@@@            ",
"         @@@@@@@@@@@@@@         ",
"         @@@@@@@@@@@@@@         ",
"       @@@@@@@@@@@@@@@@@@       ",
"      @@@@@@@@@@@@@@@@@@@@@     ",
"      @@@@@@@@@@@@@@@@@@@@@     ",
"      @@@%%%@@@@@@@#$1&@@@@     ",
"      @@@8tt<@@@@@@&ytt&@@@     ",
"      @8889998@@@&9899980@@     ",
"      @t989999@@@&9999990@@     ",
"   @@@@t999999@@@%t999tt0@@@    ",
"   @@@@t9:;;2t@@@%t5-;;60@@@    ",
"   @@@@uuo..*u@@@%t3...30@@@    ",
"   @@@@wwO..+w@@@%w,...,r@@@    ",
"   @@@@@@X..=@@@@@@@...@@@@@    ",
"   @@@@@@@@@@@@@@@@@@@@@@@@@    ",
"   @@@@@@@@@@@@@@@@@@@@@@@@@    ",
"   @@@@@@@@@@@@@@@@@@@@@@@@@    ",
"   @@@@@@@@@@@@@@@@@@@@@@@@@    ",
"   @@@@@@@@@@@@@@@@@@@@@@@@@    ",
"   @@@@@@@@@@@@@@@@@@@@@@@@@    ",
"   @@@@@@@  @@@@@@@@ @@@@@@@    ",
"     @@@      @@@@     @@@      ",
"      @@      @@@@     @@@      ",
"                                ",
"                                ",
"                                ",
"                                "
};
