/* XPM */
static char *New_Piskel_9_png1689605532[] = {
/* columns rows colors chars-per-pixel */
"32 32 47 1 ",
"  c None",
". c black",
"X c #2A2A2A",
"o c gray18",
"O c #410069",
"+ c #6D6D6D",
"@ c #767676",
"# c #540087",
"$ c #5D0096",
"% c #6F00B4",
"& c #8A00E1",
"* c #9C00FF",
"= c #C669FF",
"- c #CC78FF",
"; c #848484",
": c #858686",
"> c gray62",
", c #EEABAC",
"< c #E2B5B6",
"1 c #E9B4B5",
"2 c #E9B6B7",
"3 c #E2BCBD",
"4 c #E1BEBE",
"5 c #D896FF",
"6 c gray86",
"7 c gainsboro",
"8 c #DDDDDD",
"9 c #DFDFDF",
"0 c #EBC2C3",
"q c #EDC2C3",
"w c #EDC3C3",
"e c #EDC3C4",
"r c #EEC5C6",
"t c #E0CECE",
"y c #E0CFCF",
"u c #E0D0D0",
"i c #E1D7D7",
"p c #EBD4D4",
"a c #EAC3FF",
"s c #DFE0E0",
"d c #DFE1E1",
"f c #DFE2E2",
"g c gray88",
"h c #E0E1E1",
"j c #E1E1E1",
"k c #F9F1F1",
"l c #F9F2F2",
/* pixels */
"                                ",
"                                ",
"                                ",
"                                ",
"             *******            ",
"         **************         ",
"         **************         ",
"       ******************       ",
"       222********wwr****       ",
"      *s9sr*******s9s******     ",
"      ,s99<******0s995*****     ",
"      ggg9ssl***iggs9sf****     ",
"      ooX7ssl**-Ooo@ggg****     ",
"      ...6igl**-O..+gss****     ",
"   **%...67gl**=O..+ggs*****    ",
"   ***O::7y32**5#$:>gp4*****    ",
"   ***&gg9******=ahgs--*****    ",
"   ****yyy********yyu-******    ",
"   *************************    ",
"   *************************    ",
"   *************************    ",
"   *************************    ",
"   *************************    ",
"   *************************    ",
"   *************************    ",
"   *******  ******** *******    ",
"     ***      ****     ***      ",
"      **      ****     ***      ",
"                                ",
"                                ",
"                                ",
"                                "
};
