/* XPM */
static char *New_Piskel_2_png1689602811[] = {
/* columns rows colors chars-per-pixel */
"32 32 2 1 ",
"  c black",
". c #D4FF00",
/* pixels */
"                                ",
"                                ",
"                                ",
"                                ",
"                                ",
"                                ",
"        ...          ...        ",
"      .....          .....      ",
"      .....          .....      ",
"      .......      .......      ",
"      ........     .......      ",
"    ..........     .........    ",
"    ..........     .........    ",
"    ..........     .........    ",
"    ............ ...........    ",
"    ............ ...........    ",
"    ............ ...........    ",
"    ............ ...........    ",
"    ............ ...........    ",
"    ............ ...........    ",
"      ....................      ",
"      ....................      ",
"      ....................      ",
"       ...................      ",
"        ................        ",
"           ..........           ",
"           ..........           ",
"                                ",
"                                ",
"                                ",
"                                ",
"                                "
};
