/* XPM */
static char *New_Piskel_1_png1689602763[] = {
/* columns rows colors chars-per-pixel */
"32 32 2 1 ",
"  c black",
". c #D4FF00",
/* pixels */
"                                ",
"                                ",
"                                ",
"                                ",
"                                ",
"           ..........           ",
"           ..........           ",
"        ................        ",
"      ...................       ",
"      ....................      ",
"      ....................      ",
"      ....................      ",
"    ........... ............    ",
"    ........... ............    ",
"    ........... ............    ",
"    ........... ............    ",
"    ........... ............    ",
"    ........... ............    ",
"    .........     ..........    ",
"    .........     ..........    ",
"    .........     ..........    ",
"      .......     ........      ",
"      .......      .......      ",
"      .....          .....      ",
"      .....          .....      ",
"        ...          ...        ",
"                                ",
"                                ",
"                                ",
"                                ",
"                                ",
"                                "
};
