/* XPM */
static char *New_Piskel_4_png1689602912[] = {
/* columns rows colors chars-per-pixel */
"32 32 2 1 ",
"  c black",
". c #D4FF00",
/* pixels */
"                                ",
"                                ",
"                                ",
"                                ",
"            .........           ",
"            .........           ",
"         ................       ",
"        .................       ",
"       ...................      ",
"       ...................      ",
"       ...................      ",
"     ..................         ",
"     ..................         ",
"     .................          ",
"     .............              ",
"     .............              ",
"     .......                    ",
"     .............              ",
"     .............              ",
"     ..................         ",
"     ..................         ",
"       ...................      ",
"       ...................      ",
"       ...................      ",
"        .................       ",
"        .................       ",
"            .........           ",
"            .........           ",
"                                ",
"                                ",
"                                ",
"                                "
};
